<?xml version="1.0" encoding="utf-8"?>
<!-- Generator: Adobe Illustrator 16.0.0, SVG Export Plug-In . SVG Version: 6.00 Build 0)  -->
<!DOCTYPE svg PUBLIC "-//W3C//DTD SVG 1.1//EN" "http://www.w3.org/Graphics/SVG/1.1/DTD/svg11.dtd">
<svg version="1.1" id="Layer_1" xmlns="http://www.w3.org/2000/svg" xmlns:xlink="http://www.w3.org/1999/xlink" x="0px" y="0px"
	 width="213.509px" height="413.251px" viewBox="0 0 213.509 413.251" enable-background="new 0 0 213.509 413.251"
	 xml:space="preserve">
<g fill="#ffffff">
	<path d="M61.937,171.056C35.544,151.968,0,156.18,0,156.18s7.081,35.125,33.417,54.198c26.327,19.073,54.053,25.734,61.908,14.875
		C103.2,214.414,88.217,190.143,61.937,171.056z"/>
	<path d="M61.937,319.376C35.544,300.289,0,304.5,0,304.5s7.081,35.125,33.417,54.198c26.327,19.073,54.053,25.73,61.908,14.876
		C103.2,362.729,88.217,338.463,61.937,319.376z"/>
	<path d="M118.183,150.438c7.846,10.854,35.581,4.198,61.908-14.875c26.336-19.074,33.418-54.198,33.418-54.198
		s-35.545-4.212-61.938,14.875C125.292,115.328,110.308,139.598,118.183,150.438z"/>
	<path d="M61.937,96.24C35.544,77.153,0,81.365,0,81.365s7.081,35.124,33.417,54.198c26.327,19.073,54.053,25.729,61.908,14.875
		C103.2,139.598,88.217,115.328,61.937,96.24z"/>
	<path d="M61.937,251.562C35.544,232.475,0,236.682,0,236.682s7.081,35.129,33.417,54.203c26.327,19.068,54.053,25.729,61.908,14.87
		C103.2,294.915,88.217,270.65,61.937,251.562z"/>
	<path d="M151.572,251.562c-26.28,19.088-41.264,43.353-33.389,54.193c7.846,10.859,35.581,4.198,61.908-14.87
		c26.336-19.074,33.418-54.203,33.418-54.203S177.964,232.475,151.572,251.562z"/>
	<path d="M151.572,171.056c-26.28,19.087-41.264,43.358-33.389,54.198c7.846,10.859,35.581,4.198,61.908-14.875
		c26.336-19.074,33.418-54.198,33.418-54.198S177.964,151.968,151.572,171.056z"/>
	<path d="M151.572,319.376c-26.28,19.087-41.264,43.353-33.389,54.198c7.846,10.854,35.581,4.197,61.908-14.876
		c26.336-19.073,33.418-54.198,33.418-54.198S177.964,300.289,151.572,319.376z"/>
	<path d="M131.066,58.681C130.787,26.168,106.343,0,106.343,0s-24.06,26.486-23.901,59.054c0.201,24.126,6.353,44.824,14.993,53.839
		v300.358h18.639V113.527C125,104.835,131.23,83.55,131.066,58.681z"/>
</g>
</svg>
